ModelForces
version=1
nRows=4
nColumns=211
inDegrees=no

This file contains the forces exerted on a model during a simulation.

A force is a generalized force, meaning that it can be either a force (N) or a torque (Nm).

Units are S.I. units (second, meters, Newtons, ...)
Angles are in degrees.

endheader
time	glut_med1_r	glut_med2_r	glut_med3_r	glut_min1_r	glut_min2_r	glut_min3_r	semimem_r	semiten_r	bifemlh_r	bifemsh_r	sar_r	add_long_r	add_brev_r	add_mag1_r	add_mag2_r	add_mag3_r	tfl_r	pect_r	grac_r	glut_max1_r	glut_max2_r	glut_max3_r	iliacus_r	psoas_r	quad_fem_r	gem_r	peri_r	rect_fem_r	vas_med_r	vas_int_r	vas_lat_r	med_gas_r	lat_gas_r	soleus_r	tib_post_r	flex_dig_r	flex_hal_r	tib_ant_r	per_brev_r	per_long_r	per_tert_r	ext_dig_r	ext_hal_r	glut_med1_l	glut_med2_l	glut_med3_l	glut_min1_l	glut_min2_l	glut_min3_l	semimem_l	semiten_l	bifemlh_l	bifemsh_l	sar_l	add_long_l	add_brev_l	add_mag1_l	add_mag2_l	add_mag3_l	tfl_l	pect_l	grac_l	glut_max1_l	glut_max2_l	glut_max3_l	iliacus_l	psoas_l	quad_fem_l	gem_l	peri_l	rect_fem_l	vas_med_l	vas_int_l	vas_lat_l	med_gas_l	lat_gas_l	soleus_l	tib_post_l	flex_dig_l	flex_hal_l	tib_ant_l	per_brev_l	per_long_l	per_tert_l	ext_dig_l	ext_hal_l	ercspn_r	ercspn_l	intobl_r	intobl_l	extobl_r	extobl_l	femur_lat_meniscii_l.femur_lat_l.force.X	femur_lat_meniscii_l.femur_lat_l.force.Y	femur_lat_meniscii_l.femur_lat_l.force.Z	femur_lat_meniscii_l.femur_lat_l.torque.X	femur_lat_meniscii_l.femur_lat_l.torque.Y	femur_lat_meniscii_l.femur_lat_l.torque.Z	femur_lat_meniscii_l.meniscus_lat_l.force.X	femur_lat_meniscii_l.meniscus_lat_l.force.Y	femur_lat_meniscii_l.meniscus_lat_l.force.Z	femur_lat_meniscii_l.meniscus_lat_l.torque.X	femur_lat_meniscii_l.meniscus_lat_l.torque.Y	femur_lat_meniscii_l.meniscus_lat_l.torque.Z	femur_med_meniscii_l.femur_med_l.force.X	femur_med_meniscii_l.femur_med_l.force.Y	femur_med_meniscii_l.femur_med_l.force.Z	femur_med_meniscii_l.femur_med_l.torque.X	femur_med_meniscii_l.femur_med_l.torque.Y	femur_med_meniscii_l.femur_med_l.torque.Z	femur_med_meniscii_l.meniscus_med_l.force.X	femur_med_meniscii_l.meniscus_med_l.force.Y	femur_med_meniscii_l.meniscus_med_l.force.Z	femur_med_meniscii_l.meniscus_med_l.torque.X	femur_med_meniscii_l.meniscus_med_l.torque.Y	femur_med_meniscii_l.meniscus_med_l.torque.Z	femur_lat_meniscii_r.femur_lat_r.force.X	femur_lat_meniscii_r.femur_lat_r.force.Y	femur_lat_meniscii_r.femur_lat_r.force.Z	femur_lat_meniscii_r.femur_lat_r.torque.X	femur_lat_meniscii_r.femur_lat_r.torque.Y	femur_lat_meniscii_r.femur_lat_r.torque.Z	femur_lat_meniscii_r.meniscus_lat_r.force.X	femur_lat_meniscii_r.meniscus_lat_r.force.Y	femur_lat_meniscii_r.meniscus_lat_r.force.Z	femur_lat_meniscii_r.meniscus_lat_r.torque.X	femur_lat_meniscii_r.meniscus_lat_r.torque.Y	femur_lat_meniscii_r.meniscus_lat_r.torque.Z	femur_med_meniscii_r.femur_med_r.force.X	femur_med_meniscii_r.femur_med_r.force.Y	femur_med_meniscii_r.femur_med_r.force.Z	femur_med_meniscii_r.femur_med_r.torque.X	femur_med_meniscii_r.femur_med_r.torque.Y	femur_med_meniscii_r.femur_med_r.torque.Z	femur_med_meniscii_r.meniscus_med_r.force.X	femur_med_meniscii_r.meniscus_med_r.force.Y	femur_med_meniscii_r.meniscus_med_r.force.Z	femur_med_meniscii_r.meniscus_med_r.torque.X	femur_med_meniscii_r.meniscus_med_r.torque.Y	femur_med_meniscii_r.meniscus_med_r.torque.Z	femur_med_tibia_l.tibia_upper_l.force.X	femur_med_tibia_l.tibia_upper_l.force.Y	femur_med_tibia_l.tibia_upper_l.force.Z	femur_med_tibia_l.tibia_upper_l.torque.X	femur_med_tibia_l.tibia_upper_l.torque.Y	femur_med_tibia_l.tibia_upper_l.torque.Z	femur_med_tibia_l.femur_med_l.force.X	femur_med_tibia_l.femur_med_l.force.Y	femur_med_tibia_l.femur_med_l.force.Z	femur_med_tibia_l.femur_med_l.torque.X	femur_med_tibia_l.femur_med_l.torque.Y	femur_med_tibia_l.femur_med_l.torque.Z	femur_lat_tibia_l.tibia_upper_l.force.X	femur_lat_tibia_l.tibia_upper_l.force.Y	femur_lat_tibia_l.tibia_upper_l.force.Z	femur_lat_tibia_l.tibia_upper_l.torque.X	femur_lat_tibia_l.tibia_upper_l.torque.Y	femur_lat_tibia_l.tibia_upper_l.torque.Z	femur_lat_tibia_l.femur_lat_l.force.X	femur_lat_tibia_l.femur_lat_l.force.Y	femur_lat_tibia_l.femur_lat_l.force.Z	femur_lat_tibia_l.femur_lat_l.torque.X	femur_lat_tibia_l.femur_lat_l.torque.Y	femur_lat_tibia_l.femur_lat_l.torque.Z	femur_med_tibia_r.tibia_upper_r.force.X	femur_med_tibia_r.tibia_upper_r.force.Y	femur_med_tibia_r.tibia_upper_r.force.Z	femur_med_tibia_r.tibia_upper_r.torque.X	femur_med_tibia_r.tibia_upper_r.torque.Y	femur_med_tibia_r.tibia_upper_r.torque.Z	femur_med_tibia_r.femur_med_r.force.X	femur_med_tibia_r.femur_med_r.force.Y	femur_med_tibia_r.femur_med_r.force.Z	femur_med_tibia_r.femur_med_r.torque.X	femur_med_tibia_r.femur_med_r.torque.Y	femur_med_tibia_r.femur_med_r.torque.Z	femur_lat_tibia_r.tibia_upper_r.force.X	femur_lat_tibia_r.tibia_upper_r.force.Y	femur_lat_tibia_r.tibia_upper_r.force.Z	femur_lat_tibia_r.tibia_upper_r.torque.X	femur_lat_tibia_r.tibia_upper_r.torque.Y	femur_lat_tibia_r.tibia_upper_r.torque.Z	femur_lat_tibia_r.femur_lat_r.force.X	femur_lat_tibia_r.femur_lat_r.force.Y	femur_lat_tibia_r.femur_lat_r.force.Z	femur_lat_tibia_r.femur_lat_r.torque.X	femur_lat_tibia_r.femur_lat_r.torque.Y	femur_lat_tibia_r.femur_lat_r.torque.Z	aACL_R	pACL_R	aPCL_R	pPCL_R	aMCL_R	aLCL_R	aPCL_L	pPCL_L	aMCL_L	aLCL_L	ground_prescribedForce_fx	ground_prescribedForce_fy	ground_prescribedForce_fz	ground_prescribedForce_px	ground_prescribedForce_py	ground_prescribedForce_pz	ground_prescribedForce_fx	ground_prescribedForce_fy	ground_prescribedForce_fz	ground_prescribedForce_px	ground_prescribedForce_py	ground_prescribedForce_pz
      0.06586194	     22.34471209	     15.73496981	     17.03534322	      7.09906658	      8.06001634	      9.43449775	     28.47897774	     11.91787976	     24.98962219	     20.27868058	      3.96292720	     15.75928477	     10.95873587	      8.07775235	      6.93911927	     12.05420675	      9.28001178	      6.01867173	      4.08140841	     10.20368074	     15.53560212	     11.76021556	     41.38462428	     34.22713201	      9.88192701	      5.94694921	     13.80022304	     34.15808761	     18.64811560	     19.71966128	     25.00123743	      7.90741068	      3.96276066	     15.18390539	     27.68320402	     13.29869433	     13.55370978	     36.45996217	     10.76561662	     28.41160736	      8.93789353	     10.30337009	      2.37551150	     22.34471209	     15.73496981	     17.03534322	      7.09906658	      8.06001634	      9.43449775	     28.37009054	     12.01276990	     24.58707565	     19.68690586	      4.03956203	     15.75928477	     10.95873587	      8.07775235	      6.93911927	     12.05420675	      9.07937528	      6.01867173	      4.21199840	     10.20368074	     15.53560212	     11.76021556	     41.38462428	     34.22713201	      9.88192701	      5.94694921	     13.80022304	     33.92101431	     18.85600929	     21.93673619	     23.59906931	     48.83645919	     22.75159178	    105.19953359	     74.95047996	     11.03006917	     10.91358239	     26.36057148	     14.29867955	     34.07688898	      5.28450182	     17.55653873	      5.50349317	     66.90534787	     66.90534787	     25.89750105	     25.89750105	     42.31862856	     42.31862856	      2.76307435	     50.99597937	     -9.56042239	      5.21997485	     -0.02578839	      1.48581788	     -2.76307435	    -50.99597937	      9.56042239	     -1.74637766	      0.02558040	     -0.48301696	     -3.31599387	     20.97615968	     -3.40468921	      0.94473225	     -0.02138609	     -1.00501789	      3.31599387	    -20.97615968	      3.40468921	      0.28075727	      0.00368718	     -0.29758878	     36.47085595	     78.03554334	      0.50852558	     -2.23292215	      0.95651334	     15.26716276	    -36.47085595	    -78.03554334	     -0.50852558	      2.45337285	     -1.15084136	     -1.25711690	     91.93136674	    141.47260789	     11.20751566	     -1.55473456	     -2.04629574	     38.69765789	    -91.93136674	   -141.47260789	    -11.20751566	     -2.00701982	      1.56108829	     -3.35704141	      0.00000000	      0.00000000	      0.00000000	      0.00000000	      0.00000000	      0.00000000	      0.00000000	      0.00000000	      0.00000000	      0.00000000	      0.00000000	      0.00000000	      0.00000000	      0.00000000	      0.00000000	      0.00000000	      0.00000000	      0.00000000	      0.00000000	      0.00000000	      0.00000000	      0.00000000	      0.00000000	      0.00000000	      0.00000000	      0.00000000	      0.00000000	      0.00000000	      0.00000000	      0.00000000	      0.00000000	      0.00000000	      0.00000000	      0.00000000	      0.00000000	      0.00000000	      0.00000000	      0.00000000	      0.00000000	      0.00000000	      0.00000000	      0.00000000	      0.00000000	      0.00000000	      0.00000000	      0.00000000	      0.00000000	      0.00000000	      2.33495142	      2.74466459	      0.00000000	      0.00000000	     -2.33609058	      0.00000000	      0.00000000	      0.00000000	      0.00000001	      0.00000000	     67.00000000	      0.00000000	      0.00000000	      0.00000000	     -0.05000000	     -0.10000000	     67.00000000	      0.00000000	      0.00000000	      0.00000000	     -0.05000000	      0.10000000
      0.06919227	     21.68826320	     15.28591500	     16.54517459	      6.90268029	      7.84218064	      9.15726105	     27.69214638	     11.59840931	     24.34035073	     19.82843567	      3.89433815	     15.30605331	     10.65800938	      7.84725959	      6.73815481	     11.69950177	      9.11118427	      5.85103256	      4.01280599	      9.91012025	     15.08842803	     11.41936597	     40.53422507	     33.27322886	      9.60380725	      5.80677664	     13.41067333	     33.22220313	     18.28882180	     19.37176742	     24.55569065	      7.67557184	      3.84942179	     14.59824393	     26.95419683	     12.79093031	     13.06521264	     35.34267796	     10.44580285	     27.31105228	      8.89334088	     10.17150430	      2.39028457	     21.68826320	     15.28591500	     16.54517459	      6.90268029	      7.84218064	      9.15726105	     27.56351977	     11.65987959	     23.87366898	     19.13190157	      3.92826465	     15.30605331	     10.65800938	      7.84725959	      6.73815481	     11.69950177	      8.86654551	      5.85103256	      4.09425959	      9.91012025	     15.08842803	     11.41936597	     40.53422507	     33.27322886	      9.60380725	      5.80677664	     13.41067333	     32.93145176	     18.30393939	     21.29173811	     22.90258602	     47.50884080	     22.12964849	    102.22366211	     73.61623432	     10.67050376	     10.55325255	     25.58650460	     13.88286787	     33.15050884	      5.13687534	     17.12105111	      5.36868086	     65.05118142	     65.05118142	     25.14302107	     25.14302107	     41.60996919	     41.60996919	      2.76307435	     50.99597937	     -9.56042239	      5.21997485	     -0.02578839	      1.48581788	     -2.76307435	    -50.99597937	      9.56042239	     -1.74637766	      0.02558040	     -0.48301696	     -3.31599387	     20.97615968	     -3.40468921	      0.94473225	     -0.02138609	     -1.00501789	      3.31599387	    -20.97615968	      3.40468921	      0.28075727	      0.00368718	     -0.29758878	     34.13062235	     71.00209819	      0.50980914	     -2.05321311	      0.89415497	     14.26474507	    -34.13062235	    -71.00209819	     -0.50980914	      2.23793510	     -1.07710006	     -1.15236966	     88.69040276	    134.43551788	      8.80462258	     -0.72999834	     -1.95176364	     37.30993923	    -88.69040276	   -134.43551788	     -8.80462258	     -1.93954508	      1.47983699	     -3.21346531	      0.00000000	      0.00000000	      0.00000000	      0.00000000	      0.00000000	      0.00000000	      0.00000000	      0.00000000	      0.00000000	      0.00000000	      0.00000000	      0.00000000	      0.00000000	      0.00000000	      0.00000000	      0.00000000	      0.00000000	      0.00000000	      0.00000000	      0.00000000	      0.00000000	      0.00000000	      0.00000000	      0.00000000	      0.00000000	      0.00000000	      0.00000000	      0.00000000	      0.00000000	      0.00000000	      0.00000000	      0.00000000	      0.00000000	      0.00000000	      0.00000000	      0.00000000	      0.00000000	      0.00000000	      0.00000000	      0.00000000	      0.00000000	      0.00000000	      0.00000000	      0.00000000	      0.00000000	      0.00000000	      0.00000000	      0.00000000	      2.77244755	      3.17319873	      0.00000000	      0.00000000	     -0.95633068	      0.00000000	      0.00000000	      0.00000000	      0.00000001	      0.00000000	     67.00000000	      0.00000000	      0.00000000	      0.00000000	     -0.05000000	     -0.10000000	     67.00000000	      0.00000000	      0.00000000	      0.00000000	     -0.05000000	      0.10000000
      0.07252260	     21.06110164	     14.85767917	     16.07772294	      6.71534661	      7.63448234	      8.89246670	     26.91939655	     11.28208177	     23.67641744	     19.24392110	      3.79682281	     14.87381143	     10.37112634	      7.62747851	      6.54649443	     11.36006456	      8.92729655	      5.69114181	      3.92483178	      9.63022974	     14.66205027	     11.09426830	     39.72403948	     32.36213637	      9.33856470	      5.67300413	     13.03379105	     32.29373663	     17.89212842	     18.94716889	     24.00578722	      7.44110352	      3.71158888	     14.04291590	     25.89395873	     12.27948359	     12.58094729	     34.30111290	     10.41365280	     26.57847644	      8.76170561	     10.15648992	      2.40621918	     21.06110164	     14.85767917	     16.07772294	      6.71534661	      7.63448234	      8.89246670	     26.78499149	     11.32293040	     23.18740409	     18.60262549	      3.82209175	     14.87381143	     10.37112634	      7.62747851	      6.54649443	     11.36006456	      8.66126194	      5.69114181	      3.98196343	      9.63022974	     14.66205027	     11.09426830	     39.72403948	     32.36213637	      9.33856470	      5.67300413	     13.03379105	     31.98058445	     17.77735059	     20.67607825	     22.23778824	     46.21670764	     21.52459447	     99.34432279	     72.31631064	     10.32519191	     10.20865294	     24.84418382	     13.48234509	     32.25372154	      4.99603773	     16.68729432	      5.23362375	     63.28252114	     63.28252114	     24.42319842	     24.42319842	     40.93514033	     40.93514033	      2.76307435	     50.99597937	     -9.56042239	      5.21997485	     -0.02578839	      1.48581788	     -2.76307435	    -50.99597937	      9.56042239	     -1.74637766	      0.02558040	     -0.48301696	     -3.31599387	     20.97615968	     -3.40468921	      0.94473225	     -0.02138609	     -1.00501789	      3.31599387	    -20.97615968	      3.40468921	      0.28075727	      0.00368718	     -0.29758878	     33.89881429	     67.51254200	      0.67744058	     -2.03447649	      0.88704590	     14.14289795	    -33.89881429	    -67.51254200	     -0.67744058	      2.13795769	     -1.06970259	     -1.11780316	     87.76422666	    131.52039338	      7.48538017	     -0.26481002	     -1.91367927	     36.89914617	    -87.76422666	   -131.52039338	     -7.48538017	     -1.90830473	      1.44341415	     -3.15721400	      0.00000000	      0.00000000	      0.00000000	      0.00000000	      0.00000000	      0.00000000	      0.00000000	      0.00000000	      0.00000000	      0.00000000	      0.00000000	      0.00000000	      0.00000000	      0.00000000	      0.00000000	      0.00000000	      0.00000000	      0.00000000	      0.00000000	      0.00000000	      0.00000000	      0.00000000	      0.00000000	      0.00000000	      0.00000000	      0.00000000	      0.00000000	      0.00000000	      0.00000000	      0.00000000	      0.00000000	      0.00000000	      0.00000000	      0.00000000	      0.00000000	      0.00000000	      0.00000000	      0.00000000	      0.00000000	      0.00000000	      0.00000000	      0.00000000	      0.00000000	      0.00000000	      0.00000000	      0.00000000	      0.00000000	      0.00000000	      2.09663690	      2.49344704	      0.00000000	      0.00000000	     -2.12904274	      0.00000000	      0.00000000	      0.00000000	      0.00000001	      0.00000000	     67.00000000	      0.00000000	      0.00000000	      0.00000000	     -0.05000000	     -0.10000000	     67.00000000	      0.00000000	      0.00000000	      0.00000000	     -0.05000000	      0.10000000
      0.07585293	     20.46207414	     14.44924104	     15.63188825	      6.53661697	      7.43641817	      8.63960889	     26.13546113	     10.95763707	     23.00383016	     18.56861249	      3.69114108	     14.46154555	     10.09738167	      7.41788306	      6.36369856	     11.03540965	      8.72304623	      5.53861624	      3.82118978	      9.36334500	     14.25546138	     10.78418285	     38.95210153	     31.49224499	      9.08556339	      5.54537906	     12.66994218	     31.35533514	     17.43130742	     18.41968083	     23.34750943	      7.18414346	      3.55045137	     13.49505591	     24.59981926	     11.77205961	     12.11064764	     33.32337995	     10.57860365	     26.12130880	      8.91264232	     10.20945733	      2.41652724	     20.46207414	     14.44924104	     15.63188825	      6.53661697	      7.43641817	      8.63960889	     26.03483126	     11.00125343	     22.52809064	     18.09780582	      3.72078804	     14.46154555	     10.09738167	      7.41788306	      6.36369856	     11.03540965	      8.46367123	      5.53861624	      3.87484100	      9.36334500	     14.25546138	     10.78418285	     38.95210153	     31.49224499	      9.08556339	      5.54537906	     12.66994218	     31.06792526	     17.27510300	     20.08853351	     21.60339078	     44.96299295	     20.93776202	     96.56439604	     71.05517518	      9.99469817	      9.88002852	     24.13290302	     13.09713483	     31.39688987	      4.86169278	     16.25804265	      5.09939958	     61.59513501	     61.59513501	     23.73644013	     23.73644013	     40.29247852	     40.29247852	      2.76307435	     50.99597937	     -9.56042239	      5.21997485	     -0.02578839	      1.48581788	     -2.76307435	    -50.99597937	      9.56042239	     -1.74637766	      0.02558040	     -0.48301696	     -3.31599387	     20.97615968	     -3.40468921	      0.94473225	     -0.02138609	     -1.00501789	      3.31599387	    -20.97615968	      3.40468921	      0.28075727	      0.00368718	     -0.29758878	     35.67467239	     68.18122882	      0.89765514	     -2.14538750	      0.93308717	     14.86584573	    -35.67467239	    -68.18122882	     -0.89765514	      2.16926098	     -1.12607130	     -1.15655385	     89.52883062	    132.98483615	      6.73539089	      0.06407419	     -1.93869108	     37.62602092	    -89.52883062	   -132.98483615	     -6.73539089	     -1.93731530	      1.45640831	     -3.20405724	      0.00000000	      0.00000000	      0.00000000	      0.00000000	      0.00000000	      0.00000000	      0.00000000	      0.00000000	      0.00000000	      0.00000000	      0.00000000	      0.00000000	      0.00000000	      0.00000000	      0.00000000	      0.00000000	      0.00000000	      0.00000000	      0.00000000	      0.00000000	      0.00000000	      0.00000000	      0.00000000	      0.00000000	      0.00000000	      0.00000000	      0.00000000	      0.00000000	      0.00000000	      0.00000000	      0.00000000	      0.00000000	      0.00000000	      0.00000000	      0.00000000	      0.00000000	      0.00000000	      0.00000000	      0.00000000	      0.00000000	      0.00000000	      0.00000000	      0.00000000	      0.00000000	      0.00000000	      0.00000000	      0.00000000	      0.00000000	      2.18515929	      2.53111320	      0.00000000	      0.00000000	     -1.19345517	      0.00000000	      0.00000000	      0.00000000	      0.00000001	      0.00000000	     67.00000000	      0.00000000	      0.00000000	      0.00000000	     -0.05000000	     -0.10000000	     67.00000000	      0.00000000	      0.00000000	      0.00000000	     -0.05000000	      0.10000000
